<svg viewBox="0 0 50 50">
    <path d="M32.704,14.176l3.12,3.12-7.704,7.704,7.704,7.704-3.12,3.12-7.704-7.704-7.704,7.704-3.12-3.12,7.704-7.704-7.704-7.704,3.12-3.12,7.704,7.704,7.704-7.704m0-5.303l-2.652,2.652-5.052,5.052-5.052-5.052-2.652-2.652-2.652,2.652-3.12,3.12-2.652,2.652,2.652,2.652,5.052,5.052-5.052,5.052-2.652,2.652,2.652,2.652,3.12,3.12,2.652,2.652,2.652-2.652,5.052-5.052,5.052,5.052,2.652,2.652,2.652-2.652,3.12-3.12,2.652-2.652-2.652-2.652-5.052-5.052,5.052-5.052,2.652-2.652-2.652-2.652-3.12-3.12-2.652-2.652h0Z"/>
</svg>